<?xml version="1.0" encoding="UTF-8" standalone="yes"?><!DOCTYPE svg PUBLIC "-//W3C//DTD SVG 1.1//EN" "http://www.w3.org/Graphics/SVG/1.1/DTD/svg11.dtd"><svg width="100%" height="100%" viewBox="0 0 27146 12680" version="1.1" xmlns="http://www.w3.org/2000/svg" xmlns:xlink="http://www.w3.org/1999/xlink" xml:space="preserve" xmlns:serif="http://www.serif.com/" style="fill-rule:evenodd;clip-rule:evenodd;stroke-linejoin:round;stroke-miterlimit:2;"><g><path d="M4122.9,1.075l2595.85,-0c-1194.24,-0 -3325.56,6337.08 -4212.5,6337.08c878.267,0 3024.07,6337.21 4212.5,6337.21l-2595.85,-0c-979.742,-0 -3378.5,-6337.12 -4122.9,-6337.12c744.408,-0 3157.62,-6337.12 4122.9,-6337.12l0,-0.042Z" style="fill:#fff;fill-rule:nonzero;"/><path d="M9808.67,6285.21l143.366,0c87.05,0 1529.9,-1008.91 1529.9,-3150.73c0,-2086.63 -1444.08,-3133.39 -1537.26,-3133.39l-3053.03,0c-0,0 1817.59,559.188 1817.59,3133.39c0.001,2906.83 -2043.28,3150.73 -2043.28,3150.73c3230.6,515.434 2048.89,2904.93 2772.78,4953.5c243.174,688.146 736.233,1423.34 1642.65,1423.34l2022.87,-0c-2832.72,-1842.19 -610.104,-5845.42 -3295.59,-6376.83l-0,-0.004Z" style="fill:#fff;fill-rule:nonzero;"/><path d="M10592.4,1.075l2812.53,-0c1598.48,-0 4320.42,12674.3 6490.54,12674.3l-2777.74,-0c-1561.7,-0 -4546.17,-12674.3 -6525.33,-12674.3Z" style="fill:#fff;fill-rule:nonzero;"/><path d="M17559.9,1.075l2812.53,-0c1598.44,-0 4320.5,12674.3 6490.62,12674.3l-2777.78,-0c-1561.81,-0 -4546.17,-12674.3 -6525.38,-12674.3Z" style="fill:#fff;fill-rule:nonzero;"/><path d="M26757,1.075l-2170.66,-0c866.842,40.367 1894.79,2063.95 2209.2,2572.19c27.775,45.071 96.179,33.904 108.158,-17.692c123.092,-531.65 546.009,-2554.5 -146.7,-2554.5Z" style="fill:#fff;fill-rule:nonzero;"/></g></svg>